<?xml version="1.0" encoding="utf-8"?>
<!-- Generator: Adobe Illustrator 27.5.0, SVG Export Plug-In . SVG Version: 6.00 Build 0)  -->
<svg version="1.1" id="Layer_1" xmlns="http://www.w3.org/2000/svg"
	xmlns:xlink="http://www.w3.org/1999/xlink" x="0px" y="0px"
	viewBox="0 0 5000 2916" style="enable-background:new 0 0 5000 2916;" xml:space="preserve">
<g>
	<rect y="0" style="fill-rule:evenodd;clip-rule:evenodd;fill:#FFFFFF;" width="5000" height="2916"/>
	<path style="fill:#5044d4;" d="M2919.458,1907.75c-4.342-1.948-8.698-3.912-13.049-5.868c-2.65-0.914-5.261-1.761-7.917-2.688
		C2905.491,1902.062,2912.531,1905.004,2919.458,1907.75 M4890.68,1755.738c1.623-1.462,3.242-2.919,4.842-4.363
		c-3.506,2.505-7.021,5.016-10.624,7.576C4886.819,1757.882,4888.78,1756.798,4890.68,1755.738z M2954.802,1921.466
		c-7.13-3.446-14.286-6.938-21.449-10.432c-5.813-1.956-11.64-3.94-17.478-5.938c6.925,3.136,13.869,6.296,20.724,9.325
		C2942.685,1916.798,2948.745,1919.133,2954.802,1921.466z M2972.226,1929.938c-2.36-1.123-4.759-2.308-7.148-3.474
		c-3.34-1.275-6.715-2.606-10.067-3.896C2960.783,1925.082,2966.475,1927.465,2972.226,1929.938z M4913.806,1737.095
		c1.444-1.657,2.89-3.317,4.313-4.953c-3.181,2.899-6.404,5.834-9.68,8.808C4910.225,1739.668,4912.05,1738.359,4913.806,1737.095z
		 M4904.102,1748.227c2.369-2.708,4.656-5.34,6.975-8.002c-2.898,2.085-5.804,4.176-8.786,6.313c-2.59,2.348-5.24,4.739-7.896,7.131
		C4897.691,1751.83,4900.887,1750.03,4904.102,1748.227z M4934.313,1716.074l3.715-5.43c-2.792,3.213-5.625,6.48-8.5,9.8
		L4934.313,1716.074z M2986.835,1933.718c-8.709-4.474-17.478-9.04-26.253-13.614c-6.652-2.171-13.332-4.39-20.016-6.621
		c8.317,4.073,16.653,8.17,24.878,12.1C2972.58,1928.305,2979.743,1931.073,2986.835,1933.718z M3015.186,1948.237
		c-7.192-3.626-14.438-7.33-21.716-11.076c-5.921-2.199-11.805-4.333-17.753-6.582c7.538,3.574,14.938,6.95,22.435,10.461
		C3003.823,1943.431,3009.544,1945.897,3015.186,1948.237z M3037.387,1959.267c-3.617-1.798-7.234-3.598-10.834-5.382
		c-2.006-0.826-3.988-1.605-5.996-2.437C3026.168,1954.057,3031.831,1956.741,3037.387,1959.267z M4925.89,1728.384
		c2.05-2.991,4.077-5.953,6.08-8.883l-5.121,4.675l-2.692,2.456c-2.315,2.667-4.596,5.302-6.965,8.024L4925.89,1728.384z
		 M4917.406,1740.735c2.323-3.374,4.64-6.742,6.9-10.04c-3.25,2.347-6.504,4.694-9.857,7.107c-2.602,2.989-5.21,5.989-7.881,9.04
		C4910.248,1744.776,4913.839,1742.748,4917.406,1740.735z M4952.239,1692.907c1.038-1.94,2.073-3.87,3.1-5.776
		c-2.381,3.439-4.798,6.947-7.248,10.514C4949.485,1696.05,4950.864,1694.47,4952.239,1692.907z M4945.104,1706.255
		c1.733-3.255,3.45-6.468,5.15-9.643c-2.242,2.56-4.511,5.164-6.811,7.802c-1.998,2.918-4.025,5.878-6.071,8.873
		C4939.984,1710.905,4942.564,1708.56,4945.104,1706.255z M4937.928,1719.702l3.763-7.054l2.079-3.9
		c-2.865,2.606-5.777,5.258-8.736,7.956l-0.262,0.387c-2.161,3.156-4.39,6.415-6.604,9.653l0.883-0.639L4937.928,1719.702z
		 M4930.701,1733.221c2.096-3.917,4.165-7.79,6.208-11.615l-7.304,5.271l-3.019,2.178c-2.396,3.494-4.833,7.044-7.292,10.616
		C4923.165,1737.485,4926.967,1735.334,4930.701,1733.221z M3015.011,1944.025c-9.298-5.038-18.776-10.323-28.218-15.556
		c-6.936-2.197-13.869-4.39-20.834-6.647c9.323,4.863,18.666,9.757,27.878,14.459
		C3000.921,1938.906,3007.967,1941.464,3015.011,1944.025z M3047.296,1961.285c-8.859-4.723-17.659-9.367-26.566-14.156
		c-6.732-2.431-13.492-4.912-20.261-7.409c8.89,4.52,17.667,8.888,26.479,13.297
		C3033.756,1955.816,3040.529,1958.553,3047.296,1961.285z M3074.706,1975.894c-6.367-3.342-12.84-6.827-19.295-10.282
		c-5.675-2.274-11.401-4.629-17.105-6.952c6.932,3.461,13.886,6.945,20.753,10.312
		C3064.299,1971.315,3069.493,1973.59,3074.706,1975.894z M3094.38,1986.096c-2.135-1.109-4.246-2.178-6.377-3.279
		c-2.615-1.145-5.26-2.333-7.879-3.49C3084.921,1981.653,3089.604,1983.809,3094.38,1986.096z M4967.678,1667.874
		c0.841-2.018,1.681-4.022,2.512-6.001c-1.985,3.584-4,7.245-6.038,10.978C4965.336,1671.171,4966.511,1669.514,4967.678,1667.874z
		 M4961.775,1682.109c1.429-3.465,2.842-6.885,4.244-10.253c-1.933,2.733-3.886,5.517-5.863,8.346
		c-1.698,3.142-3.415,6.328-5.152,9.559C4957.292,1687.164,4959.55,1684.614,4961.775,1682.109z M4955.862,1696.522
		c1.627-3.969,3.229-7.886,4.817-11.746c-2.515,2.831-5.065,5.727-7.659,8.677c-1.919,3.584-3.863,7.22-5.832,10.906
		C4950.126,1701.693,4953.021,1699.082,4955.862,1696.522z M4949.922,1711.07l1.021-2.5l4.092-10.021
		c-3.006,2.708-6.065,5.474-9.177,8.3l-3.332,6.248l-2.85,5.343C4943.155,1715.934,4946.574,1713.473,4949.922,1711.07z
		 M4943.935,1725.718c1.794-4.383,3.565-8.716,5.315-12.995c-3.465,2.488-6.994,5.026-10.588,7.62
		c-2.111,3.952-4.248,7.954-6.413,12l8.432-4.779L4943.935,1725.718z M3044.411,1954.642c-10.34-5.883-20.711-11.814-31.16-17.839
		c-7.225-2.221-14.511-4.549-21.776-6.839c9.917,5.481,19.878,11.02,29.639,16.291
		C3028.885,1949.059,3036.691,1951.923,3044.411,1954.642z M3078.21,1973.701c-9.759-5.462-19.524-10.935-29.381-16.53
		c-7.196-2.523-14.415-5.089-21.653-7.686c9.58,5.137,19.114,10.213,28.625,15.255
		C3063.278,1967.739,3070.789,1970.79,3078.21,1973.701z M3110.345,1991.57c-8.663-4.765-17.426-9.665-26.191-14.563
		c-6.736-2.628-13.461-5.244-20.243-7.944c8.207,4.355,16.38,8.672,24.48,12.885
		C3095.705,1985.145,3103.093,1988.455,3110.345,1991.57z M3140.742,2008.094c-7.615-4.118-15.14-8.118-22.799-12.3
		c-5.042-2.151-10.03-4.223-15.099-6.413c6.121,3.151,12.273,6.34,18.359,9.443
		C3127.688,2001.873,3134.309,2005.116,3140.742,2008.094z M3157.843,2017.316c-1.575-0.844-3.163-1.708-4.744-2.558
		c-1.596-0.733-3.152-1.411-4.754-2.146C3151.537,2014.211,3154.666,2015.732,3157.843,2017.316z M4980.751,1641.34
		c0.667-2.067,1.33-4.11,1.99-6.135c-1.631,3.651-3.271,7.397-4.932,11.223C4978.795,1644.71,4979.776,1643.014,4980.751,1641.34z
		 M4976.02,1656.287c1.138-3.632,2.265-7.208,3.386-10.729c-1.64,2.848-3.298,5.756-4.969,8.721
		c-1.41,3.312-2.837,6.686-4.273,10.108C4972.138,1661.63,4974.09,1658.927,4976.02,1656.287z M4971.313,1671.498
		c1.288-4.196,2.565-8.327,3.83-12.392c-2.182,3.005-4.394,6.086-6.634,9.237c-1.594,3.811-3.2,7.69-4.825,11.627
		C4966.267,1677.079,4968.813,1674.255,4971.313,1671.498z M4966.611,1686.922c1.363-4.496,2.71-8.927,4.048-13.29
		c-2.646,2.92-5.336,5.919-8.069,8.993c-1.684,4.082-3.384,8.234-5.106,12.44
		C4960.582,1692.285,4963.625,1689.567,4966.611,1686.922z M4961.892,1702.516c1.413-4.68,2.811-9.299,4.192-13.856
		c-3.081,2.737-6.225,5.549-9.427,8.428c-1.592,3.894-3.202,7.843-4.836,11.838l-0.45,1.106
		C4954.95,1707.464,4958.458,1704.955,4961.892,1702.516z M4957.133,1718.243c1.417-4.68,2.817-9.314,4.198-13.883l0.108-0.36
		c-3.504,2.497-7.084,5.057-10.742,7.683c-1.788,4.37-3.594,8.799-5.428,13.281
		C4949.314,1722.666,4953.271,1720.427,4957.133,1718.243z M3071.879,1964.097c-10.876-6.447-21.82-12.98-32.814-19.584
		c-7.273-2.163-14.524-4.288-21.834-6.521c10.707,6.178,21.364,12.285,31.941,18.289
		C3056.776,1958.948,3064.32,1961.513,3071.879,1964.097z M3106.789,1984.682c-10.169-5.929-20.489-12.05-30.802-18.163
		c-7.446-2.538-14.909-5.094-22.399-7.709c10.378,5.871,20.624,11.562,30.91,17.307
		C3091.965,1979.03,3099.376,1981.849,3106.789,1984.682z M3141.186,2004.518c-9.803-5.626-19.536-11.168-29.429-16.905
		c-7.082-2.693-14.188-5.425-21.322-8.191c9.311,5.205,18.645,10.441,27.816,15.468
		C3125.948,1998.171,3133.552,2001.324,3141.186,2004.518z M3172.861,2022.638c-8.253-4.664-16.618-9.472-24.98-14.278
		c-6.984-2.903-13.992-5.846-21.028-8.825c8.865,4.801,17.692,9.553,26.508,14.292
		C3159.91,2016.832,3166.358,2019.695,3172.861,2022.638z M3204.321,2040.206c-7.196-4-14.43-8.048-21.659-12.094
		c-5.756-2.585-11.534-5.194-17.33-7.828c7.148,3.825,14.23,7.564,21.307,11.296
		C3192.539,2034.464,3198.458,2037.377,3204.321,2040.206z M3220.822,2049.423c-1.238-0.682-2.502-1.398-3.752-2.093
		c-0.992-0.479-1.973-0.938-2.969-1.413C3216.334,2047.073,3218.596,2048.274,3220.822,2049.423z M4991.66,1613.71
		c0.506-2.091,1.015-4.155,1.527-6.202c-1.325,3.675-2.648,7.446-3.975,11.314C4990.031,1617.093,4990.845,1615.392,4991.66,1613.71
		z M4988.003,1629.17c0.869-3.758,1.733-7.455,2.598-11.082c-1.379,2.909-2.769,5.892-4.165,8.939
		c-1.15,3.445-2.302,6.952-3.465,10.528C4984.664,1634.693,4986.343,1631.895,4988.003,1629.17z M4984.424,1644.991
		c0.969-4.372,1.938-8.67,2.904-12.89c-1.879,3.117-3.777,6.315-5.694,9.607c-1.283,3.993-2.571,8.06-3.873,12.203
		C4980.012,1650.852,4982.232,1647.878,4984.424,1644.991z M4980.884,1661.119c1.021-4.711,2.038-9.345,3.044-13.905
		c-2.313,3.071-4.661,6.241-7.044,9.498c-1.346,4.305-2.7,8.685-4.069,13.138
		C4975.551,1666.852,4978.243,1663.938,4980.884,1661.119z M4977.37,1677.492c1.05-4.929,2.094-9.788,3.125-14.57
		c-2.729,2.926-5.502,5.943-8.332,9.052c-1.383,4.508-2.779,9.092-4.189,13.745
		C4971.169,1682.893,4974.303,1680.149,4977.37,1677.492z M4973.851,1694.07c1.077-5.079,2.138-10.096,3.19-15.034
		c-3.131,2.717-6.33,5.524-9.596,8.416c-1.411,4.653-2.84,9.377-4.288,14.163C4966.805,1699.024,4970.369,1696.507,4973.851,1694.07
		z M4970.305,1710.818l2.279-10.761l0.979-4.624c-3.536,2.476-7.15,5.033-10.855,7.667l-0.467,1.538
		c-1.283,4.257-2.592,8.572-3.908,12.927C4962.425,1715.249,4966.417,1713.001,4970.305,1710.818z M3099.584,1973.546
		c-11.419-7.015-22.885-14.091-34.448-21.292c-7.448-2.144-14.982-4.445-22.472-6.662c11.292,6.766,22.497,13.419,33.679,20.044
		C3084.092,1968.271,3091.888,1970.994,3099.584,1973.546z M3136.299,1995.908c-11.069-6.706-22.13-13.406-33.321-20.264
		c-7.471-2.468-15.007-5.038-22.53-7.589c10.598,6.28,21.226,12.598,31.66,18.67
		C3120.173,1989.791,3128.296,1992.939,3136.299,1995.908z M3171.736,2017.273c-10.313-6.149-20.782-12.493-31.245-18.831
		c-7.64-2.824-15.338-5.73-23.041-8.643c10.315,5.967,20.543,11.821,30.764,17.669
		C3156.045,2010.723,3163.969,2014.112,3171.736,2017.273z M3207.031,2038.072c-9.951-5.837-19.914-11.695-29.954-17.648
		c-7.348-2.979-14.765-6.052-22.174-9.113c9.413,5.37,18.759,10.659,28.06,15.891
		C3190.962,2030.791,3199.11,2034.587,3207.031,2038.072z M3239.139,2056.78c-8.499-4.915-17.011-9.845-25.595-14.87
		c-6.882-3.011-13.855-6.154-20.791-9.239c8.225,4.612,16.468,9.249,24.595,13.737
		C3224.634,2049.895,3231.916,2053.377,3239.139,2056.78z M3268.584,2073.689c-6.219-3.543-12.505-7.173-18.776-10.783
		c-6.013-2.81-12.163-5.801-18.224-8.673c6.988,3.813,13.917,7.554,20.874,11.322
		C3257.846,2068.285,3263.23,2071.008,3268.584,2073.689z M3286.993,2084.141c-0.689-0.392-1.365-0.76-2.056-1.149
		c-1.033-0.513-2.096-1.07-3.134-1.583C3283.552,2082.343,3285.252,2083.213,3286.993,2084.141z M4997.925,1601.201
		c0.629-3.849,1.263-7.622,1.909-11.325c-1.169,2.936-2.332,5.953-3.496,9.051c-0.913,3.518-1.819,7.115-2.725,10.785
		C4995.056,1606.791,4996.492,1603.953,4997.925,1601.201z M4995.371,1617.439c0.684-4.501,1.373-8.922,2.071-13.249
		c-1.619,3.165-3.244,6.442-4.879,9.817c-1,4.116-1.998,8.325-2.996,12.615C4991.519,1623.46,4993.452,1620.396,4995.371,1617.439z
		 M4992.91,1634.078c0.702-4.874,1.404-9.663,2.115-14.357c-2.023,3.148-4.065,6.42-6.127,9.8c-1.031,4.467-2.065,9.024-3.1,13.667
		C4988.202,1640.042,4990.572,1637.003,4992.91,1634.078z M4990.518,1651.044c0.71-5.123,1.419-10.164,2.127-15.115
		c-2.409,3.037-4.856,6.195-7.338,9.465c-1.046,4.709-2.098,9.502-3.156,14.378
		C4984.995,1656.754,4987.783,1653.841,4990.518,1651.044z M4988.164,1668.3c0.712-5.305,1.427-10.532,2.135-15.673
		c-2.792,2.867-5.638,5.848-8.54,8.943c-1.056,4.884-2.121,9.851-3.196,14.892C4981.834,1673.638,4985.035,1670.915,4988.164,1668.3
		z M4985.818,1685.787c0.725-5.437,1.444-10.802,2.154-16.092c-3.171,2.662-6.417,5.43-9.736,8.305
		c-1.071,5.016-2.15,10.11-3.244,15.271C4978.693,1690.685,4982.303,1688.188,4985.818,1685.787z M4983.462,1703.481l1.04-7.801
		l1.148-8.627c-3.552,2.432-7.203,4.961-10.944,7.579l-1.192,5.624l-2.106,9.941
		C4975.542,1707.878,4979.56,1705.64,4983.462,1703.481z M3126.063,1982.09c-11.761-7.46-23.676-15.112-35.612-22.788
		c-7.348-2.047-14.659-4.022-22.049-6.139c11.723,7.298,23.366,14.495,34.929,21.593
		C3110.951,1977.271,3118.491,1979.657,3126.063,1982.09z M3163.856,2005.878c-11.43-7.143-22.945-14.398-34.525-21.73
		c-7.523-2.411-15.034-4.804-22.605-7.294c11.463,7.016,22.778,13.841,34.112,20.697
		C3148.562,2000.399,3156.193,2003.117,3163.856,2005.878z M3200.896,2028.847c-11.04-6.806-22.08-13.616-33.25-20.583
		c-7.519-2.698-15.038-5.396-22.612-8.182c10.85,6.558,21.674,13.076,32.381,19.443
		C3185.301,2022.723,3193.072,2025.75,3200.896,2028.847z M3236.535,2050.72c-10.219-6.209-20.582-12.596-30.949-18.986
		c-7.592-2.993-15.176-5.975-22.832-9.06c10.419,6.181,20.789,12.295,31.089,18.323
		C3221.48,2044.337,3228.964,2047.473,3236.535,2050.72z M3272.034,2072.089c-9.78-5.851-19.622-11.781-29.51-17.761
		c-7.394-3.16-14.759-6.274-22.218-9.522c10.021,5.839,19.903,11.496,29.822,17.205
		C3257.492,2065.449,3264.738,2068.736,3272.034,2072.089z M3305.451,2091.918c-8.729-5.145-17.438-10.265-26.253-15.519
		c-6.502-2.969-12.932-5.844-19.484-8.886c8.59,4.932,17.153,9.839,25.631,14.628
		C3292.123,2085.5,3298.729,2088.634,3305.451,2091.918z M3335.369,2109.5c-6.471-3.763-13.044-7.656-19.601-11.521
		c-5.346-2.589-10.677-5.167-16.057-7.803c6.55,3.663,13.13,7.368,19.643,10.983
		C3324.695,2103.942,3330.064,2106.764,3335.369,2109.5z M3352.572,2119.407c-0.529-0.305-1.056-0.603-1.585-0.907l-1.35-0.687
		C3350.62,2118.35,3351.591,2118.873,3352.572,2119.407z M4997.813,1677.739c0.373-5.754,0.748-11.433,1.119-17.028
		c-3.21,2.563-6.502,5.259-9.877,8.08c-0.723,5.348-1.448,10.778-2.184,16.28
		C4990.626,1682.513,4994.275,1680.067,4997.813,1677.739z M4996.617,1696.28l0.327-5.041l0.794-12.313
		c-3.569,2.353-7.248,4.823-11.034,7.41l-1.261,9.464l-0.948,7.108C4988.674,1700.599,4992.714,1698.387,4996.617,1696.28z
		 M3153.174,1990.807c-12.344-8.053-24.732-16.165-37.225-24.406c-7.425-1.994-14.955-4.172-22.424-6.241
		c12.119,7.78,24.21,15.526,36.167,23.102C3137.513,1985.766,3145.409,1988.392,3153.174,1990.807z M3191.958,2015.997
		c-11.869-7.641-23.899-15.479-35.941-23.337c-7.636-2.369-15.367-4.891-23.057-7.342c11.744,7.436,23.459,14.831,35.041,22.059
		C3175.978,2010.244,3184.045,2013.231,3191.958,2015.997z M3230.291,2040.498c-11.573-7.344-23.241-14.809-34.969-22.35
		c-7.788-2.712-15.682-5.577-23.534-8.385c11.473,7.144,22.797,14.104,34.137,21.077
		C3214.031,2034.038,3222.259,2037.411,3230.291,2040.498z M3267.749,2064.095c-11.159-6.989-22.322-13.982-33.616-21.135
		c-7.771-2.984-15.68-6.153-23.522-9.229c10.809,6.64,21.572,13.232,32.231,19.695
		C3251.131,2056.963,3259.54,2060.668,3267.749,2064.095z M3303.876,2086.611c-10.282-6.35-20.695-12.854-31.125-19.385
		c-7.884-3.276-15.961-6.819-23.922-10.2c10.276,6.219,20.545,12.426,30.685,18.473
		C3287.644,2079.214,3295.832,2083.006,3303.876,2086.611z M3339.644,2108.523c-9.653-5.871-19.386-11.85-29.149-17.859
		c-7.823-3.486-15.842-7.23-23.745-10.821c9.875,5.863,19.607,11.535,29.389,17.272
		C3323.97,2100.913,3331.892,2104.826,3339.644,2108.523z M3373.106,2128.71c-8.748-5.249-17.453-10.439-26.287-15.792
		c-6.759-3.204-13.567-6.468-20.386-9.752c8.365,4.893,16.665,9.706,24.935,14.476
		C3358.628,2121.349,3365.914,2125.087,3373.106,2128.71z M3401.537,2145.73c-5.68-3.361-11.461-6.85-17.216-10.308
		c-5.467-2.73-11.046-5.6-16.551-8.38c6.45,3.702,12.942,7.456,19.324,11.071C3391.955,2140.712,3396.705,2143.17,3401.537,2145.73z
		 M3419.696,2156.37l-0.196-0.114l-0.171-0.09L3419.696,2156.37z M3178.938,1998.563c-12.732-8.526-25.47-17.053-38.371-25.786
		c-7.271-1.885-14.482-3.666-21.793-5.624c12.626,8.322,25.122,16.487,37.589,24.615
		C3163.942,1994.115,3171.411,1996.298,3178.938,1998.563z M3218.884,2025.132c-12.355-8.174-24.749-16.395-37.26-24.765
		c-7.467-2.24-14.901-4.423-22.416-6.747c12.219,7.964,24.405,15.882,36.456,23.635
		C3203.462,2019.971,3211.146,2022.509,3218.884,2025.132z M3257.859,2050.8c-11.828-7.724-23.822-15.649-35.829-23.591
		c-7.661-2.587-15.284-5.125-23.003-7.802c11.88,7.635,23.722,15.226,35.433,22.65
		C3242.331,2045.075,3250.056,2047.879,3257.859,2050.8z M3296.423,2075.771c-11.548-7.439-23.145-14.94-34.841-22.56
		c-7.752-2.89-15.457-5.711-23.28-8.695c11.686,7.393,23.212,14.582,34.75,21.798
		C3280.931,2069.587,3288.616,2072.598,3296.423,2075.771z M3334.383,2100.037c-11.19-7.112-22.384-14.232-33.71-21.513
		c-7.656-3.102-15.23-6.091-22.957-9.29c11.103,6.93,22.134,13.778,33.083,20.525
		C3318.747,2093.3,3326.512,2096.598,3334.383,2100.037z M3370.946,2123.164c-10.359-6.493-20.849-13.145-31.358-19.824
		c-7.632-3.317-15.215-6.567-22.92-9.984c10.209,6.285,20.424,12.576,30.487,18.682
		C3355.145,2115.824,3363.039,2119.482,3370.946,2123.164z M3406.606,2145.334c-9.586-5.925-19.243-11.938-28.928-17.987
		c-7.613-3.524-15.276-7.115-22.964-10.738c10.044,6.059,19.986,11.991,29.931,17.926
		C3392.038,2138.229,3399.282,2141.733,3406.606,2145.334z M3441.195,2166.529c-8.846-5.389-17.645-10.722-26.579-16.216
		c-6.721-3.286-13.453-6.582-20.236-9.945c8.557,5.086,17.015,10.054,25.476,15.024
		C3426.99,2159.129,3434.13,2162.878,3441.195,2166.529z M3469.43,2183.703c-5.769-3.473-11.646-7.073-17.495-10.64
		c-4.906-2.519-9.732-4.934-14.669-7.492c5.406,3.165,10.859,6.385,16.205,9.476
		C3458.823,2177.972,3464.115,2180.823,3469.43,2183.703z M3204.996,2006.408c-13-8.91-26.147-17.992-39.36-27.159
		c-7.405-1.851-14.892-3.845-22.341-5.766c13.001,8.798,25.851,17.415,38.675,25.991
		C3189.639,2001.776,3197.381,2004.194,3204.996,2006.408z M3246.152,2034.381c-12.832-8.687-25.628-17.335-38.627-26.229
		c-7.563-2.192-15.255-4.593-22.868-6.869c12.671,8.469,25.203,16.764,37.712,25.033
		C3230.287,2028.988,3238.302,2031.806,3246.152,2034.381z M3286.358,2061.445c-12.38-8.283-24.824-16.648-37.369-25.135
		c-7.757-2.538-15.659-5.289-23.476-7.92c12.205,8.063,24.37,16.077,36.4,23.925
		C3270.053,2055.347,3278.293,2058.52,3286.358,2061.445z M3325.498,2087.536c-11.778-7.782-23.747-15.797-35.71-23.802
		c-7.963-2.879-16.117-6.028-24.153-9.011c11.857,7.724,23.647,15.366,35.342,22.892
		C3309.149,2080.925,3317.403,2084.339,3325.498,2087.536z M3364.904,2113.333c-11.709-7.634-23.434-15.288-35.287-23.097
		c-8.038-3.165-16.274-6.6-24.395-9.874c11.661,7.485,23.162,14.769,34.679,22.077
		C3348.224,2106.059,3356.666,2109.834,3364.904,2113.333z M3402.566,2137.724c-11.063-7.125-22.155-14.278-33.36-21.573
		c-7.961-3.369-16.061-6.928-24.105-10.408c11.051,7.001,22.03,13.919,32.929,20.733
		C3386.253,2130.285,3394.43,2134.028,3402.566,2137.724z M3439.428,2161.348c-10.409-6.611-20.97-13.404-31.533-20.206
		c-7.705-3.479-15.367-6.906-23.147-10.487c10.117,6.318,20.234,12.639,30.208,18.782
		C3423.136,2153.441,3431.336,2157.462,3439.428,2161.348z M3475.509,2184.058c-9.757-6.11-19.57-12.29-29.425-18.519
		c-7.513-3.591-15.036-7.192-22.626-10.88c9.659,5.917,19.23,11.718,28.799,17.522
		C3460.033,2176.172,3467.815,2180.17,3475.509,2184.058z M3509.311,2205.071c-8.354-5.165-16.669-10.277-25.107-15.539
		c-7.002-3.515-14.165-7.232-21.237-10.836c8.961,5.408,17.813,10.684,26.672,15.97
		C3496.258,2198.209,3502.752,2201.6,3509.311,2205.071z M3538.473,2223.04c-5.777-3.526-11.653-7.17-17.501-10.788
		c-5.082-2.664-10.151-5.323-15.265-8.034c5.354,3.189,10.746,6.425,16.032,9.531
		C3527.339,2216.874,3532.916,2219.969,3538.473,2223.04z M3230.261,2013.51c-13.299-9.307-26.76-18.812-40.26-28.365
		c-7.248-1.745-14.445-3.405-21.728-5.215c13.288,9.217,26.524,18.374,39.596,27.325
		C3215.394,2009.435,3222.788,2011.412,3230.261,2013.51z M3272.128,2042.623c-13.072-9.04-26.222-18.183-39.485-27.456
		c-7.448-2.085-14.832-4.073-22.336-6.239c13.132,8.981,26.062,17.714,39.021,26.481
		C3256.996,2037.917,3264.521,2040.208,3272.128,2042.623z M3313.372,2070.969c-12.803-8.758-25.62-17.537-38.596-26.502
		c-7.563-2.395-15.059-4.694-22.68-7.178c12.771,8.634,25.42,17.121,38.019,25.542
		C3297.952,2065.663,3305.607,2068.238,3313.372,2070.969z M3353.768,2098.469c-12.351-8.353-24.83-16.854-37.362-25.423
		c-7.703-2.7-15.315-5.28-23.091-8.077c12.278,8.206,24.537,16.387,36.629,24.368
		C3337.967,2092.496,3345.819,2095.417,3353.768,2098.469z M3393.536,2125.22c-11.976-8-24.101-16.177-36.26-24.392
		c-7.796-2.982-15.461-5.789-23.336-8.874c11.942,7.865,23.793,15.623,35.579,23.296
		C3377.6,2118.672,3385.54,2121.907,3393.536,2125.22z M3433.109,2151.432c-11.819-7.797-23.603-15.551-35.579-23.526
		c-7.88-3.252-15.749-6.483-23.714-9.841c11.573,7.521,23.001,14.863,34.427,22.205
		C3416.56,2144.027,3424.886,2147.793,3433.109,2151.432z M3471.247,2176.427c-11.024-7.178-22.116-14.437-33.289-21.796
		c-8.05-3.543-16.255-7.283-24.395-10.942c11.028,7.078,22.007,14.096,32.877,20.982
		C3454.75,2168.639,3463.031,2172.576,3471.247,2176.427z M3507.884,2200.184c-10.134-6.512-20.441-13.227-30.731-19.93
		c-7.946-3.705-16.032-7.582-24.07-11.403c10.54,6.667,21.068,13.319,31.458,19.804
		C3492.408,2192.608,3500.1,2196.342,3507.884,2200.184z M3544.934,2223.766c-9.926-6.289-19.866-12.6-29.887-19.008
		c-7.492-3.678-14.976-7.352-22.545-11.131c9.68,6.01,19.239,11.874,28.824,17.768
		C3529.208,2215.534,3537.139,2219.737,3544.934,2223.766z M3578.394,2244.84c-8.367-5.234-16.74-10.473-25.201-15.821
		c-6.727-3.458-13.459-6.926-20.249-10.463c8.713,5.334,17.322,10.541,25.937,15.754
		C3565.447,2237.897,3571.887,2241.327,3578.394,2244.84z M3608.289,2263.463c-5.752-3.555-11.592-7.215-17.409-10.845
		c-5.136-2.75-10.322-5.561-15.495-8.358c5.317,3.208,10.671,6.468,15.924,9.6
		C3596.986,2257.082,3602.659,2260.296,3608.289,2263.463z M3255.777,2020.636c-13.705-9.776-27.537-19.704-41.425-29.698
		c-7.269-1.682-14.599-3.461-21.911-5.215c13.601,9.617,27.151,19.178,40.55,28.549
		C3240.587,2016.397,3248.233,2018.597,3255.777,2020.636z M3298.419,2050.943c-13.305-9.387-26.824-19.03-40.344-28.673
		c-7.509-2.026-15.136-4.23-22.701-6.34c13.34,9.329,26.599,18.553,39.741,27.639
		C3282.885,2046.028,3290.717,2048.581,3298.419,2050.943z M3340.621,2080.501c-13.159-9.181-26.307-18.35-39.646-27.746
		c-7.665-2.348-15.482-4.908-23.216-7.344c13.109,9.05,26.047,17.897,38.977,26.734
		C3324.702,2074.938,3332.731,2077.815,3340.621,2080.501z M3381.95,2109.187c-12.728-8.784-25.531-17.661-38.438-26.66
		c-7.836-2.659-15.836-5.544-23.745-8.307c12.69,8.672,25.308,17.249,37.819,25.701
		C3365.722,2103.032,3373.896,2106.188,3381.95,2109.187z M3422.746,2137.241c-12.363-8.435-24.92-17.098-37.479-25.769
		c-7.981-2.961-16.111-6.119-24.174-9.192c12.315,8.319,24.637,16.64,36.76,24.731
		C3406.162,2130.437,3414.527,2133.936,3422.746,2137.241z M3462.613,2164.252c-12.009-8.097-24.087-16.276-36.258-24.567
		c-8.067-3.233-16.228-6.589-24.38-9.938c12.217,8.13,24.282,16.077,36.341,24.019
		C3446.5,2157.367,3454.521,2160.768,3462.613,2164.252z M3502.021,2190.641c-11.707-7.795-23.428-15.614-35.292-23.599
		c-7.915-3.392-15.749-6.686-23.751-10.192c11.605,7.625,23.093,15.109,34.541,22.548
		C3485.762,2183.243,3493.868,2186.914,3502.021,2190.641z M3540.502,2216.149c-11.101-7.303-22.332-14.759-33.606-22.26
		c-7.875-3.582-15.676-7.073-23.643-10.768c10.78,6.998,21.543,13.979,32.158,20.783
		C3523.812,2208.032,3532.202,2212.146,3540.502,2216.149z M3577.804,2240.535c-10.411-6.759-20.945-13.665-31.5-20.593
		c-7.84-3.763-15.69-7.54-23.62-11.414c10.336,6.606,20.643,13.176,30.854,19.627
		C3561.672,2232.337,3569.766,2236.473,3577.804,2240.535z M3614.358,2264.076c-9.773-6.263-19.48-12.448-29.358-18.834
		c-7.667-3.86-15.469-7.885-23.222-11.848c9.923,6.244,19.682,12.286,29.495,18.396
		C3599.011,2255.936,3606.709,2260.037,3614.358,2264.076z M3647.972,2285.516c-8.217-5.201-16.503-10.476-24.826-15.807
		c-6.504-3.412-12.913-6.706-19.48-10.198c8.269,5.128,16.459,10.161,24.628,15.171
		C3634.909,2278.361,3641.42,2281.91,3647.972,2285.516z M3678.605,2304.771c-5.748-3.594-11.567-7.269-17.357-10.912
		c-5.102-2.782-10.282-5.657-15.422-8.486c5.361,3.272,10.765,6.597,16.07,9.798
		C3667.479,2298.389,3673.065,2301.605,3678.605,2304.771z M3280.564,2027.144c-13.99-10.149-28.104-20.445-42.275-30.812
		c-7.173-1.595-14.338-3.164-21.555-4.83c13.974,10.054,27.891,20.036,41.69,29.876
		C3265.857,2023.381,3273.185,2025.219,3280.564,2027.144z M3324,2058.56c-13.628-9.788-27.479-19.843-41.321-29.885
		c-7.33-1.905-14.578-3.683-21.957-5.667c13.605,9.701,27.218,19.419,40.6,28.852C3308.949,2054.19,3316.435,2056.32,3324,2058.56z
		 M3366.966,2089.256c-13.43-9.548-26.966-19.22-40.596-29.002c-7.505-2.214-14.909-4.285-22.472-6.591
		c13.428,9.459,26.706,18.734,39.95,27.969C3351.626,2084.271,3359.264,2086.718,3366.966,2089.256z M3409.344,2119.207
		c-13.184-9.272-26.412-18.602-39.781-28.097c-7.619-2.505-15.132-4.854-22.824-7.453c13.051,9.092,25.978,18.04,38.848,26.914
		C3393.563,2113.532,3401.445,2116.356,3409.344,2119.207z M3450.929,2148.339c-12.769-8.886-25.695-17.953-38.658-27.073
		c-7.79-2.8-15.501-5.505-23.37-8.411c12.665,8.733,25.299,17.433,37.773,25.934
		C3434.82,2142.053,3442.868,2145.191,3450.929,2148.339z M3492.168,2176.916c-12.486-8.589-25.149-17.392-37.831-26.212
		c-7.98-3.107-15.993-6.253-24.06-9.474c12.344,8.407,24.635,16.748,36.8,24.942
		C3475.451,2169.762,3483.895,2173.45,3492.168,2176.916z M3532.583,2204.516c-12.23-8.314-24.432-16.602-36.825-25.112
		c-8.117-3.386-16.355-6.936-24.568-10.445c12.134,8.155,24.095,16.107,36.062,24.066
		C3515.709,2196.875,3524.228,2200.797,3532.583,2204.516z M3571.895,2231.106c-11.632-7.816-23.345-15.731-35.148-23.747
		c-8.138-3.61-16.386-7.359-24.622-11.09c11.59,7.7,23.107,15.313,34.533,22.812
		C3555.109,2223.137,3563.549,2227.178,3571.895,2231.106z M3609.864,2256.541c-10.767-7.149-21.736-14.534-32.679-21.893
		c-8.161-3.82-16.48-7.835-24.737-11.78c11.026,7.238,22.07,14.5,32.914,21.525
		C3593.613,2248.543,3601.716,2252.514,3609.864,2256.541z M3648.391,2281.901c-10.707-7.021-21.466-14.096-32.3-21.259
		c-7.775-3.825-15.511-7.596-23.383-11.533c10.326,6.655,20.589,13.237,30.804,19.761
		C3631.821,2273.232,3640.184,2277.66,3648.391,2281.901z M3684.374,2305.327c-9.6-6.212-19.203-12.429-28.922-18.778
		c-7.655-3.932-15.432-8.019-23.178-12.058c9.886,6.289,19.635,12.418,29.395,18.565
		C3669.292,2297.216,3676.83,2301.269,3684.374,2305.327z M3717.721,2326.854c-7.932-5.073-16.013-10.316-24.076-15.536
		c-6.54-3.498-13.019-6.921-19.626-10.497c8.13,5.106,16.228,10.173,24.249,15.146
		C3704.81,2319.662,3711.244,2323.234,3717.721,2326.854z M3749.177,2346.769c-5.786-3.649-11.611-7.354-17.407-11.02
		c-4.95-2.745-9.984-5.587-14.976-8.378c5.527,3.4,11.103,6.858,16.582,10.207
		C3738.662,2340.664,3743.931,2343.734,3749.177,2346.769z M3305.317,2033.517c-14.332-10.569-28.735-21.212-43.26-32.012
		c-7.155-1.522-14.336-3.095-21.532-4.688c14.255,10.425,28.431,20.755,42.498,30.957
		C3290.465,2029.706,3297.927,2031.666,3305.317,2033.517z M3349.647,2066.081c-13.969-10.205-28.099-20.597-42.273-31.046
		c-7.369-1.84-14.822-3.809-22.241-5.726c13.932,10.101,27.855,20.193,41.577,30.047
		C3334.367,2061.614,3342.052,2063.916,3349.647,2066.081z M3393.272,2097.825c-13.649-9.871-27.47-19.949-41.333-30.074
		c-7.561-2.149-15.236-4.462-22.862-6.703c13.697,9.829,27.324,19.574,40.814,29.159
		C3377.702,2092.772,3385.532,2095.361,3393.272,2097.825z M3436.399,2128.826c-13.48-9.653-26.953-19.303-40.625-29.179
		c-7.698-2.444-15.517-5.043-23.289-7.586c13.48,9.57,26.805,18.95,40.096,28.297
		C3420.552,2123.226,3428.509,2126.067,3436.399,2128.826z M3479.032,2159.214c-13.174-9.341-26.451-18.799-39.821-28.37
		c-7.846-2.733-15.78-5.586-23.705-8.427c13.142,9.237,26.218,18.394,39.167,27.395
		C3462.823,2152.986,3470.971,2156.158,3479.032,2159.214z M3520.509,2188.521c-12.671-8.885-25.564-18.035-38.444-27.162
		c-7.95-3.003-15.944-6.064-23.987-9.181c12.738,8.857,25.489,17.735,38.019,26.349
		C3504.311,2181.953,3512.392,2185.218,3520.509,2188.521z M3561.853,2217.307c-12.534-8.694-25.105-17.43-37.812-26.325
		c-8.046-3.264-16.101-6.541-24.243-9.926c12.536,8.603,24.93,17.031,37.304,25.435
		C3545.417,2210.18,3553.638,2213.743,3561.853,2217.307z M3602.263,2245.165c-12.094-8.295-24.226-16.634-36.491-25.13
		c-8.121-3.506-16.292-7.078-24.51-10.705c12.198,8.276,24.276,16.406,36.3,24.477
		C3585.888,2237.705,3594.042,2241.392,3602.263,2245.165z M3641.94,2272.258c-11.613-7.873-23.382-15.928-35.181-24.014
		c-8.059-3.681-16.067-7.302-24.224-11.103c11.375,7.633,22.734,15.238,33.931,22.66
		C3624.992,2263.991,3633.525,2268.197,3641.94,2272.258z M3680.492,2298.227c-11.038-7.395-22.189-14.916-33.387-22.492
		c-8.086-3.882-16.23-7.836-24.42-11.843c11.107,7.347,22.182,14.655,33.133,21.816
		C3664.119,2289.97,3672.298,2294.089,3680.492,2298.227z M3718.978,2323.802c-10.744-7.107-21.459-14.173-32.343-21.44
		c-7.952-3.995-15.969-8.065-24.026-12.184c10.584,6.894,20.991,13.583,31.443,20.327
		C3702.379,2314.958,3710.759,2319.476,3718.978,2323.802z M3754.721,2347.323c-9.459-6.178-18.999-12.452-28.593-18.787
		c-7.563-3.959-15.184-7.993-22.836-12.058c9.709,6.243,19.332,12.387,28.906,18.478
		C3739.766,2339.151,3747.24,2343.232,3754.721,2347.323z M3788.862,2369.502c-8.063-5.203-16.234-10.532-24.393-15.843
		c-6.49-3.531-12.932-7-19.49-10.609c7.886,5.014,15.807,10.062,23.563,14.926
		C3775.385,2361.898,3782.095,2365.664,3788.862,2369.502z M3819.799,2389.305c-5.89-3.753-11.723-7.448-17.638-11.238
		c-4.711-2.647-9.49-5.376-14.234-8.065c5.823,3.603,11.7,7.274,17.501,10.856
		C3810.243,2383.698,3815.02,2386.503,3819.799,2389.305z M3329.623,2039.451c-14.594-10.918-29.201-21.854-43.998-33.016
		c-7.103-1.447-14.232-2.936-21.376-4.453c14.605,10.855,29.064,21.535,43.469,32.153
		C3315.06,2035.964,3322.333,2037.701,3329.623,2039.451z M3374.696,2073.051c-14.282-10.602-28.677-21.326-43.16-32.162
		c-7.246-1.738-14.461-3.422-21.761-5.237c14.257,10.507,28.453,20.937,42.506,31.202
		C3359.803,2068.99,3367.237,2071.003,3374.696,2073.051z M3419.061,2105.873c-13.93-10.238-28.093-20.753-42.252-31.26
		c-7.409-2.026-14.759-3.973-22.232-6.091c13.921,10.168,27.828,20.32,41.529,30.227
		C3403.808,2101.191,3411.433,2103.531,3419.061,2105.873z M3463.129,2138.05c-13.849-10.081-27.697-20.159-41.74-30.473
		c-7.584-2.321-15.124-4.588-22.78-7.009c13.773,9.951,27.335,19.647,40.919,29.371
		C3447.431,2132.69,3455.306,2135.408,3463.129,2138.05z M3506.411,2169.399c-13.492-9.728-27.053-19.535-40.746-29.498
		c-7.746-2.609-15.501-5.232-23.328-7.947c13.455,9.621,26.793,19.115,40.054,28.508
		C3490.443,2163.502,3498.448,2166.474,3506.411,2169.399z M3548.988,2199.986c-13.088-9.344-26.364-18.904-39.664-28.489
		c-7.915-2.896-15.901-5.883-23.906-8.893c13.067,9.256,26.124,18.5,38.983,27.512
		C3532.639,2193.457,3540.85,2196.77,3548.988,2199.986z M3590.923,2229.743c-12.834-9.065-25.762-18.239-38.787-27.526
		c-8.028-3.158-16.084-6.362-24.205-9.643c12.828,8.977,25.56,17.841,38.204,26.604
		C3574.456,2222.769,3582.706,2226.28,3590.923,2229.743z M3632.438,2258.873c-12.622-8.818-25.251-17.648-38.054-26.674
		c-8.08-3.395-16.155-6.778-24.336-10.297c12.473,8.63,24.782,17.067,37.079,25.491
		C3615.602,2251.265,3624.073,2255.135,3632.438,2258.873z M3672.848,2286.972c-12.063-8.333-24.247-16.816-36.5-25.368
		c-8.188-3.642-16.442-7.363-24.734-11.136c12.036,8.238,24.005,16.4,35.86,24.422
		C3655.979,2278.975,3664.454,2283.026,3672.848,2286.972z M3712.288,2314.097c-11.436-7.81-23.034-15.809-34.645-23.826
		c-8.255-3.87-16.651-7.908-25.016-11.909c11.532,7.802,23.055,15.596,34.4,23.18
		C3695.516,2305.806,3703.912,2309.969,3712.288,2314.097z M3751.563,2340.712c-11.328-7.642-22.614-15.243-34.085-23.054
		c-8.002-3.93-15.961-7.804-24.064-11.858c11.124,7.41,22.12,14.664,33.108,21.917
		C3734.926,2332.119,3743.268,2336.444,3751.563,2340.712z M3789.723,2366.317c-10.505-7.005-21.062-14.067-31.718-21.246
		c-8.04-4.116-16.209-8.393-24.353-12.634c10.498,6.909,20.876,13.677,31.229,20.419
		C3773.182,2357.368,3781.527,2361.93,3789.723,2366.317z M3825.308,2389.963c-9.257-6.098-18.693-12.399-28.104-18.674
		c-7.494-3.993-15.03-8.029-22.614-12.125c9.398,6.112,18.782,12.203,28.037,18.144
		C3810.243,2381.591,3817.781,2385.787,3825.308,2389.963z M3860.381,2412.858c-8.305-5.404-16.645-10.848-25.008-16.317
		c-6.365-3.511-12.667-6.95-19.099-10.539c8.207,5.236,16.442,10.515,24.562,15.649
		C3847.428,2405.474,3853.859,2409.112,3860.381,2412.858z M3890.382,2432.285c-5.686-3.659-11.334-7.274-17.078-10.996
		c-4.728-2.696-9.499-5.439-14.263-8.175c6.342,3.974,12.642,7.896,18.943,11.822
		C3882.148,2427.42,3886.244,2429.83,3890.382,2432.285z M3353.716,2045.128c-14.888-11.296-29.747-22.553-44.848-34.101
		c-7.04-1.369-14.084-2.744-21.166-4.184c14.861,11.211,29.518,22.176,44.175,33.14
		C3339.177,2041.73,3346.467,2043.461,3353.716,2045.128z M3399.555,2079.76c-14.565-10.959-29.199-22.009-43.965-33.208
		c-7.231-1.66-14.517-3.397-21.803-5.135c14.555,10.885,29.003,21.646,43.356,32.294
		C3384.638,2075.761,3392.126,2077.801,3399.555,2079.76z M3444.62,2113.573c-14.188-10.585-28.591-21.414-43.004-32.264
		c-7.407-1.946-14.888-3.997-22.357-6.035c14.226,10.556,28.454,21.109,42.456,31.397
		C3429.382,2109.017,3437.024,2111.325,3444.62,2113.573z M3489.241,2146.669c-14.034-10.374-28.112-20.799-42.35-31.409
		c-7.567-2.231-15.201-4.552-22.841-6.882c14.097,10.35,28.022,20.496,41.919,30.611
		C3473.78,2141.617,3481.518,2144.148,3489.241,2146.669z M3533.462,2179.185c-13.838-10.136-27.718-20.319-41.76-30.69
		c-7.692-2.502-15.422-5.048-23.197-7.656c13.834,10.059,27.516,19.944,41.15,29.769
		C3517.64,2173.527,3525.57,2176.38,3533.462,2179.185z M3576.823,2210.817c-13.448-9.755-27.058-19.7-40.719-29.702
		c-7.817-2.766-15.634-5.532-23.539-8.414c13.39,9.646,26.737,19.241,39.919,28.644
		C3560.643,2204.557,3568.766,2207.732,3576.823,2210.817z M3619.667,2241.75c-13.159-9.452-26.46-19.066-39.823-28.752
		c-8.002-3.056-16.113-6.241-24.216-9.418c13.124,9.353,26.189,18.635,39.115,27.759
		C3603.072,2234.837,3611.443,2238.382,3619.667,2241.75z M3661.762,2271.781c-12.875-9.152-25.732-18.28-38.787-27.642
		c-8.163-3.33-16.511-6.889-24.776-10.347c12.963,9.135,25.73,18.042,38.51,26.962
		C3645.109,2264.492,3653.47,2268.177,3661.762,2271.781z M3702.95,2300.913c-12.398-8.719-24.893-17.553-37.479-26.492
		c-8.209-3.553-16.536-7.25-24.855-10.936c12.567,8.762,25.037,17.413,37.414,25.953
		C3686.424,2293.373,3694.666,2297.114,3702.95,2300.913z M3743.693,2329.47c-12.057-8.385-24.33-17.021-36.589-25.643
		c-8.127-3.709-16.199-7.354-24.435-11.194c11.797,8.141,23.605,16.296,35.206,24.206
		C3726.501,2321.075,3735.183,2325.375,3743.693,2329.47z M3783.475,2356.925c-11.667-8.027-23.347-16.065-35.164-24.261
		c-8.255-3.957-16.626-8.053-24.991-12.141c11.788,8.015,23.478,15.916,35.112,23.753
		C3766.87,2348.599,3775.151,2352.739,3783.475,2356.925z M3822.751,2383.773c-11.236-7.639-22.507-15.317-33.904-23.14
		c-8.059-4.034-16.067-8.007-24.23-12.172c11.092,7.458,22.043,14.742,32.989,22.021
		C3806.038,2374.97,3814.432,2379.415,3822.751,2383.773z M3860.649,2409.431c-10.278-6.901-20.713-13.989-31.156-21.084
		c-8.052-4.196-16.272-8.585-24.43-12.905c10.317,6.851,20.588,13.65,30.747,20.322
		C3844.109,2400.342,3852.459,2404.981,3860.649,2409.431z M3897.237,2433.828c-9.546-6.335-19.172-12.76-28.826-19.221
		c-7.446-4.024-14.949-8.113-22.485-12.244c9.311,6.096,18.628,12.206,27.81,18.149
		C3881.613,2425.003,3889.455,2429.453,3897.237,2433.828z M3931.947,2456.703c-8.444-5.537-16.828-11.003-25.36-16.642
		c-6.283-3.514-12.478-6.918-18.83-10.507c8.336,5.355,16.62,10.649,24.878,15.92
		C3919.131,2449.289,3925.515,2452.967,3931.947,2456.703z M3961.135,2475.807c-5.227-3.39-10.559-6.904-15.865-10.383
		c-5.036-2.902-10.069-5.805-15.147-8.755c7.044,4.462,13.909,8.714,20.885,13.096
		C3954.421,2471.825,3957.74,2473.771,3961.135,2475.807z M3377.581,2050.527c-15.065-11.577-30.143-23.165-45.431-35.003
		c-7.036-1.304-14.134-2.716-21.209-4.085c15.149,11.579,30.062,22.887,44.996,34.214
		C3363.177,2047.313,3370.398,2048.944,3377.581,2050.527z M3424.092,2086.11c-14.832-11.308-29.714-22.676-44.75-34.229
		c-7.155-1.567-14.323-3.158-21.532-4.805c14.832,11.247,29.524,22.328,44.15,33.333
		C3409.373,2082.357,3416.746,2084.252,3424.092,2086.11z M3469.938,2120.961c-14.503-10.969-29.199-22.156-43.929-33.389
		c-7.309-1.842-14.617-3.686-21.989-5.615c14.488,10.901,28.947,21.767,43.21,32.399
		C3454.827,2116.598,3462.415,2118.819,3469.938,2120.961z M3515.363,2155.141c-14.342-10.751-28.772-21.602-43.329-32.603
		c-7.477-2.12-14.984-4.276-22.532-6.492c14.288,10.645,28.445,21.139,42.521,31.541
		C3499.814,2150.12,3507.655,2152.717,3515.363,2155.141z M3560.114,2188.509c-14.093-10.47-28.201-20.963-42.5-31.673
		c-7.655-2.399-15.399-4.92-23.132-7.424c14.111,10.42,28.045,20.629,41.954,30.811
		C3544.361,2183.031,3552.276,2185.818,3560.114,2188.509z M3604.101,2221.067c-13.692-10.081-27.526-20.331-41.431-30.659
		c-7.798-2.666-15.705-5.471-23.595-8.252c13.809,10.103,27.541,20.124,41.137,29.98
		C3588.248,2215.204,3596.163,2218.126,3604.101,2221.067z M3647.495,2252.894c-13.426-9.791-27.018-19.778-40.654-29.818
		c-7.857-2.903-15.659-5.738-23.614-8.762c13.453,9.75,26.872,19.463,40.106,28.963
		C3631.484,2246.6,3639.449,2249.699,3647.495,2252.894z M3690.487,2284.047c-13.284-9.593-26.535-19.149-40.008-28.963
		c-7.992-3.163-15.949-6.28-24.043-9.568c13.28,9.518,26.337,18.773,39.425,28.068
		C3674.15,2277.175,3682.305,2280.594,3690.487,2284.047z M3732.799,2314.46c-12.903-9.228-25.895-18.555-38.996-28.012
		c-8.071-3.392-16.067-6.7-24.237-10.226c12.744,9.045,25.374,17.953,37.933,26.778
		C3715.973,2306.868,3724.442,2310.732,3732.799,2314.46z M3773.947,2343.788c-12.349-8.741-24.918-17.731-37.475-26.71
		c-8.215-3.652-16.499-7.385-24.824-11.17c12.43,8.731,24.843,17.447,37.066,25.941
		C3757.196,2335.911,3765.582,2339.866,3773.947,2343.788z M3815.01,2372.633c-12.167-8.515-24.366-17.073-36.7-25.779
		c-8.25-3.854-16.588-7.811-24.956-11.804c12.063,8.363,24.032,16.624,35.925,24.792
		C3797.9,2364.158,3806.509,2368.458,3815.01,2372.633z M3854.876,2400.367c-11.686-8.09-23.403-16.211-35.258-24.497
		c-8.271-4.043-16.593-8.147-24.976-12.329c11.88,8.142,23.589,16.085,35.302,24.032
		C3838.35,2391.955,3846.584,2396.123,3854.876,2400.367z M3893.907,2427.273c-11.034-7.55-22.22-15.277-33.431-23.035
		c-8.082-4.114-16.146-8.216-24.341-12.462c10.984,7.443,21.905,14.81,32.722,22.059
		C3877.259,2418.378,3885.615,2422.866,3893.907,2427.273z M3932.488,2453.509c-10.446-7.063-21.003-14.253-31.591-21.483
		c-8.011-4.237-16.186-8.666-24.303-13.03c10.198,6.828,20.403,13.662,30.445,20.304
		C3915.533,2444.052,3924.111,2448.895,3932.488,2453.509z M3969.319,2478.233c-9.809-6.555-19.563-13.041-29.487-19.729
		c-7.503-4.111-15.103-8.336-22.701-12.557c9.598,6.314,19.124,12.542,28.626,18.741
		C3953.635,2469.231,3961.542,2473.806,3969.319,2478.233z M4003.519,2500.989c-8.13-5.369-16.343-10.831-24.591-16.337
		c-6.632-3.748-13.219-7.455-19.924-11.291c8.334,5.411,16.509,10.642,24.749,15.941
		C3990.364,2493.223,3996.979,2497.148,4003.519,2500.989z M4034.635,2521.4c-5.777-3.772-11.624-7.625-17.438-11.438
		c-4.525-2.638-9.003-5.215-13.561-7.891c5.315,3.402,10.607,6.781,15.857,10.11
		C4024.545,2515.261,4029.622,2518.368,4034.635,2521.4z M3401.078,2055.545c-15.28-11.879-30.612-23.821-46.125-35.971
		c-6.936-1.227-13.849-2.41-20.824-3.697c15.324,11.864,30.452,23.499,45.552,35.099
		C3386.846,2052.547,3393.968,2054.052,3401.078,2055.545z M3448.245,2092.061c-15.065-11.63-30.162-23.292-45.436-35.165
		c-7.1-1.489-14.218-3.001-21.37-4.566c15.092,11.594,30.018,22.988,44.904,34.335
		C3433.68,2088.516,3440.972,2090.299,3448.245,2092.061z M3494.704,2127.802c-14.728-11.277-29.624-22.752-44.575-34.29
		c-7.259-1.752-14.549-3.548-21.868-5.386c14.792,11.279,29.533,22.49,44.1,33.502
		C3479.857,2123.753,3487.279,2125.777,3494.704,2127.802z M3540.627,2162.827c-14.513-11.022-29.141-22.18-43.875-33.459
		c-7.403-2.014-14.824-4.052-22.297-6.161c14.596,11.03,29.091,21.94,43.467,32.711
		C3525.56,2158.312,3533.07,2160.538,3540.627,2162.827z M3586.246,2197.29c-14.403-10.848-28.808-21.699-43.421-32.789
		c-7.531-2.27-15.042-4.513-22.655-6.887c14.417,10.795,28.631,21.353,42.84,31.906
		C3570.818,2192.189,3578.529,2194.735,3586.246,2197.29z M3631.284,2231.078c-14.111-10.536-28.356-21.227-42.686-32.017
		c-7.663-2.526-15.282-5.002-23.032-7.642c13.976,10.379,27.868,20.656,41.634,30.789
		C3615.237,2225.179,3623.344,2228.233,3631.284,2231.078z M3675.248,2263.795c-13.655-10.106-27.503-20.433-41.377-30.79
		c-7.888-2.817-15.949-5.849-23.937-8.789c13.715,10.094,27.418,20.175,40.91,30.011
		C3659.014,2257.46,3667.183,2260.693,3675.248,2263.795z M3719.036,2295.989c-13.638-9.994-27.233-19.947-41.069-30.17
		c-7.978-3.059-16.03-6.207-24.112-9.392c13.578,9.885,26.937,19.514,40.321,29.178
		C3702.493,2289.104,3710.833,2292.63,3719.036,2295.989z M3761.913,2327.27c-13.198-9.582-26.479-19.261-39.881-29.079
		c-8.107-3.31-16.32-6.747-24.543-10.189c13.234,9.542,26.335,18.93,39.367,28.244
		C3745.258,2319.977,3753.627,2323.677,3761.913,2327.27z M3803.805,2357.593c-12.653-9.096-25.522-18.442-38.387-27.784
		c-8.217-3.548-16.568-7.262-24.895-10.95c12.815,9.155,25.61,18.282,38.214,27.197
		C3787.173,2349.995,3795.492,2353.797,3803.805,2357.593z M3845.773,2387.565c-12.636-8.989-25.312-18.028-38.125-27.225
		c-8.161-3.715-16.278-7.374-24.553-11.223c12.403,8.754,24.72,17.411,36.941,25.955
		C3828.658,2379.287,3837.275,2383.498,3845.773,2387.565z M3886.553,2416.407c-12.078-8.503-24.18-17.031-36.437-25.74
		c-8.39-4-16.963-8.217-25.479-12.36c12.209,8.518,24.243,16.833,36.279,25.154
		C3869.519,2407.844,3878.073,2412.173,3886.553,2416.407z M3926.28,2444.268c-11.532-8.032-23.218-16.24-34.937-24.489
		c-8.234-4.097-16.488-8.218-24.841-12.453c11.713,8.085,23.343,16.077,34.873,23.954
		C3909.775,2435.723,3918,2439.96,3926.28,2444.268z M3965.565,2471.466c-11.071-7.625-22.261-15.383-33.493-23.191
		c-8.054-4.167-16.088-8.312-24.253-12.612c10.875,7.424,21.753,14.856,32.449,22.071
		C3948.77,2462.395,3957.181,2466.946,3965.565,2471.466z M4004.254,2497.913c-10.646-7.245-21.241-14.43-32.022-21.829
		c-7.971-4.276-16.063-8.695-24.143-13.101c10.498,7.054,20.914,14.004,31.293,20.919
		C3987.706,2488.612,3996.043,2493.337,4004.254,2497.913z M4041.165,2522.905c-9.523-6.402-19.12-12.896-28.785-19.46
		c-7.723-4.281-15.607-8.75-23.433-13.15c9.669,6.415,19.197,12.671,28.741,18.943
		C4025.522,2513.802,4033.429,2518.455,4041.165,2522.905z M4075.798,2546.081c-8.107-5.389-16.338-10.918-24.553-16.431
		c-6.611-3.779-13.282-7.629-19.97-11.494c7.763,5.089,15.499,10.148,23.149,15.106
		C4061.545,2537.531,4068.758,2541.904,4075.798,2546.081z M4106.795,2566.523c-5.971-3.925-11.896-7.797-17.895-11.751
		c-3.902-2.299-7.709-4.484-11.64-6.812c4.531,2.911,9.125,5.892,13.63,8.772C4096.184,2559.989,4101.544,2563.32,4106.795,2566.523
		z M4995.329,1716.08c-4.292,1.887-8.755,3.859-13.391,5.912c-22.93,170.401-57.919,396.047-179.138,556.955
		c-154.198,204.682-447.827,304.573-1033.514,52.556c13.003,9.433,25.985,18.839,38.777,28.032
		c578.45,263.195,869.677,183.245,1019.597-11.962C4960.502,2174.6,4982.528,1911.186,4995.329,1716.08z M4982.091,1720.882
		c4.604-2.039,9.044-3.999,13.309-5.872c0.387-5.936,0.769-11.807,1.144-17.609c-3.927,2.122-7.996,4.353-12.205,6.681
		C4983.599,1709.616,4982.851,1715.217,4982.091,1720.882z M2848.242,1879.441c-3.896-1.182-7.788-2.35-11.692-3.548
		c7.319,2.716,14.565,5.29,21.833,7.901C2855.026,1882.388,2851.607,1880.866,2848.242,1879.441z M2875.198,1887.627
		c-6.215-1.822-12.492-3.813-18.724-5.686c7.463,3.138,14.836,6.115,22.259,9.188c6.173,2.195,12.403,4.508,18.545,6.645
		C2889.953,1894.451,2882.586,1891.056,2875.198,1887.627z M2900.416,1894.797c-6.536-1.86-13.046-3.661-19.601-5.573
		c8.707,4.024,17.297,7.86,25.928,11.765c6.604,2.272,13.174,4.487,19.751,6.708
		C2917.842,1903.46,2909.158,1899.17,2900.416,1894.797z M2926.492,1902.209c-7.073-1.948-14.209-4.048-21.312-6.057
		c9.59,4.784,19.036,9.354,28.529,13.996c7.28,2.444,14.609,4.985,21.855,7.354
		C2945.918,1912.467,2936.251,1907.405,2926.492,1902.209z M2951.364,1908.866c-6.911-1.844-13.778-3.591-20.711-5.491
		c10.188,5.413,20.216,10.594,30.289,15.843c7.208,2.347,14.365,4.595,21.539,6.877
		C2972.117,1920.363,2961.833,1914.741,2951.364,1908.866z M2977.011,1915.666c-7.321-1.89-14.698-3.895-22.049-5.846
		c10.846,6.078,21.472,11.852,32.199,17.769c7.478,2.364,15.015,4.844,22.453,7.131
		C2998.829,1928.477,2987.916,1922.066,2977.011,1915.666z M3001.556,1921.834c-7.051-1.754-14.078-3.456-21.157-5.271
		c11.117,6.517,22.199,12.988,33.196,19.347c7.44,2.279,14.811,4.426,22.216,6.635
		C3024.453,1935.722,3013.072,1928.866,3001.556,1921.834z M3026.499,1927.975c-7.267-1.747-14.567-3.572-21.859-5.381
		c11.676,7.124,23.257,14.12,34.772,21.028c7.58,2.253,15.226,4.627,22.761,6.799
		C3050.377,1943.061,3038.437,1935.516,3026.499,1927.975z M3050.825,1933.713c-7.134-1.655-14.267-3.313-21.43-5.026
		c12.086,7.629,24.145,15.223,36.089,22.673c7.461,2.142,14.832,4.123,22.247,6.193
		C3075.485,1949.677,3063.232,1941.793,3050.825,1933.713z M3075.035,1939.218c-7.177-1.604-14.372-3.242-21.578-4.908
		c12.563,8.177,24.96,16.143,37.35,24.102c7.523,2.089,15.094,4.269,22.576,6.285
		C3100.693,1956.319,3087.919,1947.838,3075.035,1939.218z M3099.249,1944.564c-7.192-1.549-14.407-3.153-21.63-4.76
		c12.988,8.683,25.891,17.263,38.683,25.704c7.338,1.972,14.584,3.77,21.882,5.667
		C3125.335,1962.465,3112.27,1953.486,3099.249,1944.564z M3122.979,1949.517c-7.102-1.467-14.205-2.928-21.336-4.454
		c13.14,9.001,26.301,18.028,39.269,26.819c7.488,1.939,15.001,3.928,22.445,5.79
		C3149.978,1968.387,3136.517,1959,3122.979,1949.517z M3146.737,1954.415c-7.117-1.411-14.286-2.943-21.43-4.412
		c13.649,9.556,27.195,18.988,40.683,28.351c7.34,1.829,14.613,3.547,21.914,5.309
		C3174.252,1974.001,3160.566,1964.295,3146.737,1954.415z M3169.94,1958.834c-7.004-1.331-13.984-2.611-21.018-4.003
		c13.924,9.943,27.695,19.703,41.425,29.413c7.338,1.765,14.682,3.536,21.976,5.23
		C3198.285,1979.366,3184.203,1969.21,3169.94,1958.834z M3193.305,1963.286c-7.04-1.28-14.153-2.703-21.224-4.043
		c14.344,10.432,28.503,20.638,42.619,30.794c7.259,1.677,14.482,3.296,21.695,4.905
		C3222.128,1984.503,3207.819,1974.018,3193.305,1963.286z M3216.238,1967.277c-6.94-1.208-13.832-2.324-20.801-3.586
		c14.54,10.749,28.897,21.278,43.196,31.736c7.215,1.602,14.405,3.168,21.578,4.697
		C3245.671,1989.314,3231.014,1978.369,3216.238,1967.277z M3239.224,1971.238c-6.961-1.154-13.969-2.401-20.959-3.61
		c14.823,11.121,29.547,22.13,44.137,32.975c7.173,1.525,14.351,3.059,21.485,4.513
		C3269.136,1993.985,3254.202,1982.638,3239.224,1971.238z M3261.861,1974.873c-6.875-1.087-13.738-2.15-20.643-3.289
		c14.999,11.41,29.972,22.796,44.744,33.946c7.096,1.442,14.145,2.809,21.199,4.184
		C3292.215,1998.282,3277.024,1986.563,3261.861,1974.873z M3284.383,1978.352c-6.85-1.031-13.728-2.098-20.607-3.185
		c15.201,11.72,30.452,23.488,45.44,34.953c7.096,1.382,14.238,2.826,21.295,4.143
		C3315.289,2002.468,3299.821,1990.393,3284.383,1978.352z M3306.757,1981.65c-6.809-0.97-13.642-1.984-20.482-3.005
		c15.472,12.065,30.954,24.148,46.213,35.969c6.992,1.295,13.905,2.468,20.855,3.7
		C3337.954,2006.255,3322.354,1993.953,3306.757,1981.65z M4842.109,1782.371c-289.115,119.061-832.663,298.928-1533.535,199.526
		c15.649,12.341,31.281,24.665,46.721,36.764C4073.666,2145.394,4572.276,1927.518,4842.109,1782.371z M4861.243,1774.424
		c-3.546,1.483-7.101,2.969-10.726,4.477c-267.791,145.041-768.726,368.434-1493.608,241.019
		c15.549,12.182,30.929,24.165,46.242,36.068C4155.625,2213.523,4615.621,1945.798,4861.243,1774.424z M4877.425,1767.61
		c-3.976,1.684-7.951,3.371-12.038,5.087c-244.631,171.204-705.115,442.194-1460.507,284.641
		c15.328,11.911,30.466,23.604,45.583,35.269C4236.089,2282.077,4655.556,1965.347,4877.425,1767.61z M4892.82,1761.052
		c-4.152,1.782-8.375,3.579-12.667,5.401c-221.253,197.56-640.592,516.75-1427.807,327.607
		c15.011,11.582,29.949,23.083,44.736,34.403C4316.676,2351.313,4694.716,1985.351,4892.82,1761.052z M4907.825,1754.596
		c-4.228,1.831-8.58,3.702-12.97,5.582c-197.689,224.12-575.32,592.086-1395.726,369.845c14.771,11.308,29.464,22.521,44.01,33.565
		C4397.834,2421.281,4733.624,2005.629,4907.825,1754.596z M4922.671,1748.144c-4.283,1.873-8.719,3.795-13.186,5.731
		c-173.921,250.87-509.2,668.209-1364.149,411.389c14.676,11.136,29.128,22.013,43.594,32.905
		c737.735,243.306,1065.378-34.357,1241.416-294.892C4866.873,1849.214,4896.874,1795.905,4922.671,1748.144z M4937.364,1741.703
		c-4.336,1.906-8.75,3.845-13.28,5.825c-25.94,48.061-56.138,101.796-92.95,156.281
		c-176.005,260.489-503.384,538.114-1239.856,296.128c14.421,10.856,28.743,21.59,42.946,32.192
		c669.092,238.89,985.26,37.041,1156.8-208.494C4857.461,1928.535,4902.214,1826.87,4937.364,1741.703z M4951.954,1735.268
		c-4.352,1.924-8.767,3.875-13.336,5.885c-35.227,85.397-80.083,187.505-146.818,283.024
		c-171.492,245.467-487.351,447.326-1155.072,209.817c13.94,10.405,27.887,20.82,41.6,30.962
		c629.119,241.104,935.772,85.106,1101.155-144.922C4868.35,1996.429,4916.469,1851.448,4951.954,1735.268z M4966.467,1728.844
		c-4.338,1.922-8.771,3.889-13.363,5.917c-35.525,116.373-83.69,261.813-172.851,385.828
		c-165.314,229.934-471.578,386.008-1099.155,146.411c13.905,10.275,27.597,20.303,41.304,30.344
		c603.682,246.409,903.031,122.42,1062.514-93.95C4891.484,2058.81,4935.657,1872.968,4966.467,1728.844z M4969.978,1727.288
		l-2.436,1.079c-30.835,144.305-75.006,330.622-181.857,475.588c-159.404,216.259-458.285,340.378-1060.291,95.589
		c13.593,9.948,27.041,19.734,40.425,29.447c587.644,253.862,881.908,154.217,1036.22-50.618
		c120.939-160.536,155.96-385.705,178.884-555.934C4977.372,1724.012,4973.726,1725.628,4969.978,1727.288z M4967.788,1727.217
		l1.804-0.798c3.936-1.747,7.761-3.441,11.479-5.086c0.756-5.621,1.5-11.182,2.231-16.681c-3.931,2.179-7.986,4.441-12.159,6.783
		C4970.04,1716.638,4968.925,1721.896,4967.788,1727.217z M4953.473,1733.557c4.55-2.01,8.94-3.956,13.242-5.863
		c1.127-5.273,2.233-10.486,3.325-15.639c-3.927,2.207-7.965,4.483-12.107,6.826
		C4956.467,1723.719,4954.983,1728.609,4953.473,1733.557z M4939.143,1739.883c4.519-1.986,8.875-3.913,13.178-5.815
		c1.492-4.89,2.961-9.725,4.411-14.506c-3.919,2.216-7.936,4.494-12.044,6.822
		C4942.862,1730.833,4941.018,1735.337,4939.143,1739.883z M4924.819,1746.165c4.444-1.943,8.815-3.86,13.067-5.733
		c1.85-4.478,3.668-8.91,5.465-13.292l-2.203,1.248l-9.742,5.522C4929.24,1737.952,4927.044,1742.037,4924.819,1746.165z
		 M4910.517,1752.389c4.362-1.892,8.702-3.775,12.888-5.604c2.182-4.04,4.332-8.041,6.455-11.997
		c-3.848,2.18-7.794,4.412-11.79,6.667C4915.581,1745.062,4913.073,1748.699,4910.517,1752.389z M4896.318,1758.514
		c4.248-1.823,8.446-3.63,12.542-5.404c2.471-3.567,4.909-7.092,7.321-10.592c-3.756,2.122-7.586,4.276-11.476,6.456
		C4901.958,1752.115,4899.135,1755.319,4896.318,1758.514z M4882.363,1764.483c4.044-1.72,8-3.412,11.921-5.096
		c2.671-3.027,5.313-6.03,7.928-9.011c-3.606,2.026-7.244,4.061-10.967,6.14C4888.319,1759.146,4885.365,1761.798,4882.363,1764.483
		z M4869.104,1770.102c3.563-1.502,7.042-2.981,10.534-4.462c2.652-2.371,5.305-4.738,7.902-7.071
		c-3.26,1.818-6.506,3.627-9.863,5.481C4874.821,1766.069,4872.017,1768.058,4869.104,1770.102z M4858.843,1774.393
		c2.025-0.844,4.094-1.701,6.088-2.539c1.777-1.241,3.559-2.485,5.305-3.712C4866.47,1770.212,4862.718,1772.28,4858.843,1774.393z
		 M0,1716.752c355.78-141.048,1374.854-455.39,2480.299,25.972c111.36,48.489,220.351,89.13,326.758,122.955
		c-105.508-40.251-214.502-87.63-327.156-143.376C1273.318,1125.222,335.117,1496.88,0,1675.138v-1.072
		c335.661-178.435,1273.905-549.613,2480.322,47.386c118.414,58.598,232.822,108.007,343.336,149.532
		c5.577,1.74,11.113,3.358,16.68,5.062c-114.96-48.954-234.983-106.8-360.453-175.036C1178.084,993.045,314.895,1411.57,0,1628.047
		v-1.152c315.553-216.715,1178.892-634.492,2480.339,73.28c128.294,69.772,250.925,128.736,368.227,178.372
		c6.902,2.091,13.828,4.251,20.703,6.286c-123.046-57.321-252.65-125.128-389.397-205.114
		C1090.225,866.896,295.054,1320.063,0,1575.205v-1.256c295.773-255.418,1091.23-707.567,2480.351,104.951
		c138.88,81.234,270.426,149.963,395.174,207.831c6.854,2.014,13.636,3.863,20.468,5.818
		c-130.481-65.462-268.932-142.875-416.131-234.12C1011.742,748.403,276.128,1221.399,0,1514.83v-1.396
		c276.897-293.712,1012.959-765.391,2480.359,144.189c148.799,92.234,288.683,170.381,420.4,236.281
		c7.29,2.076,14.603,4.203,21.868,6.217c-137.909-73.576-285.175-160.545-442.774-262.978
		C944.562,639.283,258.659,1114.955,0,1444.867v-1.522c259.425-330.156,945.895-804.331,2480.368,193
		c159.012,103.349,307.522,190.999,446.483,264.978c7.117,1.96,14.182,3.8,21.274,5.699
		c-145.003-81.525-300.752-177.898-468.28-291.166C891.561,541.971,243.739,1000.266,0,1362.633v-1.737
		c244.554-362.51,893.124-819.017,2480.376,254.171c168.702,114.067,325.487,211.03,471.346,292.908
		c7.421,1.98,14.853,3.983,22.249,5.897c-152.26-89.505-316.514-195.129-494.133-319.304C855.089,458.68,232.551,878.054,0,1265.697
		v-1.897c233.368-387.638,856.743-805.12,2480.382,329.99c178.734,124.956,343.932,231.129,496.977,320.983
		c7.175,1.846,14.313,3.623,21.463,5.409c-159.187-97.31-331.762-212.197-518.99-346.9C837.009,391.337,226.495,750.458,0,1152.397
		v-2.051c227.328-401.746,838.746-758.93,2480.386,422.164c188.239,135.432,361.633,250.796,521.518,348.432
		c7.363,1.834,14.721,3.656,22.055,5.428c-166.285-105.157-347.105-229.046-544.129-374.37
		C837.279,340.465,226.636,621.475,0,1023.339v-2.441c227.53-401.353,839.215-680.183,2480.391,530.334
		c197.962,146.014,379.55,270.382,546.465,375.848c7.242,1.742,14.474,3.458,21.689,5.137
		c-173.192-112.883-362.197-245.82-568.718-401.506C852.976,304.303,233.068,496.338,0,882.463v-2.372
		c234.003-385.463,854.97-575.477,2480.397,649.86c207.346,156.308,397.041,289.702,570.779,402.863
		c7.227,1.675,14.43,3.304,21.626,4.915c-180.03-120.536-377.108-262.404-592.982-428.304
		C880.182,280.066,245.191,379.599,0,735.581v-2.086c245.973-355.359,881.727-453.438,2480.399,775.177
		c216.696,166.535,414.421,308.824,594.986,429.649c7.277,1.624,14.567,3.276,21.816,4.84
		c-186.957-128.207-392.061-278.861-617.383-455.022C914.167,264.082,261.576,274.065,0,588.967v-2.006
		c262.313-314.232,915.587-322.972,2480.401,900.43c226.068,176.741,431.761,327.798,619.191,456.27
		c7.161,1.537,14.28,2.994,21.411,4.472c-193.716-135.761-406.697-295.108-641.19-481.279
		C951.064,253.138,280.624,180.453,0,447.451v-1.938c281.327-266.305,952.377-192.548,2480.405,1020.598
		c235.208,186.734,448.762,346.485,642.922,482.505c7.188,1.485,14.413,3.054,21.566,4.477
		c-200.498-143.294-421.417-311.374-665.079-507.525C988.287,244.891,301.017,98.054,0,313.927v-1.822
		c301.661-215.212,989.452-67.497,2480.409,1132.724c244.321,196.68,465.769,365.143,666.671,508.681
		c7.052,1.399,14.042,2.675,21.066,4.012c-207.113-150.706-435.778-327.362-688.334-533.235
		C1024.035,237.586,321.685,25.59,0,189.931v-1.81c322.32-163.657,1025.18,49.171,2480.412,1235.427
		c253.19,206.394,482.376,383.435,689.874,534.382c7.084,1.345,14.201,2.762,21.257,4.049
		c-213.773-158.118-450.246-343.375-711.731-558.978C1057.655,230.391,342.034-38.551,0,75.472v-1.696
		C342.64-39.609,1058.74,230.055,2480.414,1402.268c262.117,216.124,499.092,401.753,713.242,560.113
		c6.998,1.275,13.93,2.42,20.899,3.637c-220.371-165.468-464.444-359.089-734.749-584.3C1436.495,512.444,766.795,116.16,344.401,0
		h4.556C771.92,118.006,1440.799,514.791,2480.416,1380.985c270.905,225.717,515.436,419.68,736.166,585.384
		c7.005,1.216,14.018,2.456,20.991,3.615c-226.978-172.797-478.655-374.76-757.767-609.553
		C1580.167,603.646,952.987,188.675,521.151,0h2.886C956.035,189.464,1582.69,604.529,2480.416,1359.705
		c279.701,235.287,531.826,437.592,759.155,610.625c6.927,1.149,13.822,2.238,20.72,3.334
		c-233.516-180.058-492.706-390.283-780.487-634.516C1661.344,644.548,1064.503,225.656,633.069,0h2.415
		c431.474,226.134,1027.893,645.027,1844.934,1338.423c288.335,244.703,547.95,455.253,781.789,635.537
		c6.892,1.089,13.771,2.151,20.635,3.187c-240.01-187.274-506.669-405.702-803.04-659.283
		C1720.713,668.372,1148.472,249.603,720.501,0h1.85c428.023,249.881,999.754,668.314,1758.067,1317.143
		c296.913,254.043,563.989,472.802,804.313,660.297c6.856,1.031,13.719,2.069,20.549,3.044
		c-246.483-194.45-520.578-421.042-825.481-683.905C1767.047,682.105,1216.184,266.149,792.91,0h1.802
		c423.277,266.36,973.68,682.01,1685.707,1295.86c305.415,263.304,579.9,490.213,826.677,684.873
		c708.219,100.84,1255.96-83.644,1543.021-202.699c9.269-5.021,18.326-9.97,27.051-14.79c8.43-5.951,16.622-11.785,24.516-17.44
		c7.519-6.814,14.771-13.432,21.797-19.845l4.994-5.752c4.858-5.604,9.592-11.068,14.211-16.37
		c5.74-8.377,11.291-16.44,16.667-24.143c4.879-9.019,9.62-17.65,14.232-25.837c4.069-9.539,8.044-18.603,11.955-27.138
		c3.317-9.938,6.604-19.315,9.892-28.068c1.51-5.815,3.029-11.419,4.567-16.798v3.448c-0.481,1.723-0.962,3.468-1.442,5.234
		c0.479-1.216,0.96-2.419,1.442-3.61v7.54l-0.681,4.082l0.681-1.281v1.997l-1.167,2.229c-0.748,4.578-1.483,9.263-2.215,14.042
		c1.131-1.728,2.258-3.415,3.381-5.065v1.677c-1.233,1.829-2.475,3.707-3.723,5.628c-0.737,4.854-1.467,9.803-2.198,14.848
		c1.996-2.477,3.969-4.871,5.921-7.174v1.464c-2.038,2.424-4.1,4.943-6.188,7.554c-0.725,5.053-1.452,10.205-2.177,15.444
		c2.84-2.89,5.63-5.656,8.365-8.29v1.316c-2.806,2.715-5.665,5.565-8.584,8.544c-0.721,5.219-1.446,10.528-2.173,15.915
		c3.34-2.783,6.594-5.44,9.773-7.968c0.325-4.896,0.652-9.73,0.983-14.498v14.928l-0.063,0.051
		c-0.377,5.645-0.75,11.373-1.127,17.176l1.189-0.777v1.133l-1.267,0.83l-0.842,13.029l-0.288,4.448l2.396-1.29v1.079l-2.469,1.327
		c-0.379,5.842-0.761,11.743-1.152,17.715l3.621-1.587v1.038l-3.69,1.619c-12.805,195.274-34.771,459.159-167.896,632.5
		c-149.776,195.02-440.293,275.241-1016.516,14.126c12.984,9.314,25.874,18.522,38.656,27.611
		c573.679,273.491,862.977,209.77,1009.128,22.702c90.471-115.797,126.083-278.9,140.317-438.6v10.359
		c-14.853,156.54-50.9,315.333-139.569,428.826c-145.995,186.865-434.56,250.859-1005.844-20.409
		c12.52,8.883,24.847,17.551,37.187,26.229c572.877,285.079,861.879,235.741,1004.884,55.496
		c50.796-64.029,83.171-144.583,103.343-232.511v4.252c-20.261,86.481-52.479,165.68-102.601,228.85
		c-142.796,179.986-430.838,229.723-1000.848-52.724c12.084,8.491,24.091,16.891,35.985,25.161
		c575.016,297.598,864.654,260.955,1005.004,86.483c25.466-31.654,46-67.865,62.459-107.417v2.497
		c-16.342,38.807-36.65,74.355-61.716,105.515c-140.082,174.13-428.465,211.33-999.977-83.081
		c11.53,8.017,23.066,16.034,34.397,23.826c579.616,311.006,870.741,285.866,1008.869,116.303
		c6.488-7.964,12.599-16.283,18.426-24.864v1.691c-5.606,8.193-11.476,16.145-17.69,23.773
		c-137.78,169.14-427.377,194.955-1002.779-112.235c11.186,7.656,22.255,15.183,33.3,22.681
		c548.306,304.05,840.323,310.871,987.17,174.98v1.273c-146.586,134.819-436.824,128.319-979.693-171.156
		c10.565,7.153,20.995,14.146,31.416,21.13C4551.644,2814.81,4840.671,2857.137,5000,2767.1v1.05
		c-158.6,89.155-445.018,47.792-938.503-232.688c9.365,6.27,18.703,12.508,27.922,18.609
		c458.906,270.113,742.306,338.306,910.581,286.116v0.941c-166.808,51.473-446.264-14.902-896.701-277.939
		c7.911,5.208,15.857,10.454,23.678,15.56C4549.846,2834.34,4825.76,2921.44,5000,2900.462v0.847
		c-171.511,20.532-441.172-63.311-851.974-308.896c5.652,3.649,11.275,7.269,16.895,10.884
		c267.565,165.684,477.103,265.056,639.688,312.702h-2.921c-153.658-45.431-348.953-136.753-595.119-286.142
		C4418.748,2764,4594.859,2857.047,4740.268,2916h-2.165c-154.56-62.848-343.665-164.092-573.649-311.982
		c-24.197-14.978-48.851-30.483-73.962-46.514c-23.563-14.483-47.463-29.358-71.908-44.862
		c-22.247-13.558-44.908-27.596-67.956-42.074c-23.853-14.378-48.244-29.376-73.014-44.82c-23.743-14.173-47.963-28.9-72.566-44.078
		c-23.603-13.94-47.615-28.363-72.029-43.257c-23.439-13.679-47.198-27.746-71.437-42.372
		c-23.201-13.364-46.675-27.054-70.649-41.343c-22.839-12.96-45.913-26.204-69.485-40.053c-22.428-12.508-45.1-25.314-68.23-38.679
		c-21.845-11.944-43.956-24.215-66.451-36.968c-22.249-11.891-44.873-24.254-67.785-36.975
		c-21.964-11.443-44.315-23.376-66.883-35.591c-21.628-10.954-43.488-22.209-65.678-33.902
		c-21.551-10.536-43.425-21.506-65.539-32.804c-20.505-9.643-41.212-19.569-62.19-29.875c-20.099-8.993-40.463-18.372-60.957-27.954
		c-20.295-8.556-40.771-17.396-61.47-26.585c-19.128-7.492-38.442-15.306-57.853-23.288c-18.265-6.529-36.606-13.205-55.076-20.146
		c-111.67-34.838-226.247-77.263-343.417-128.285C1374.417,1262.208,355.328,1576.844,0,1717.776V1716.752z"/>
</g>
</svg>